<?xml version="1.0" encoding="utf-8"?>
<!-- Generator: Adobe Illustrator 20.0.0, SVG Export Plug-In . SVG Version: 6.00 Build 0)  -->
<svg version="1.1" id="Calque_1" xmlns="http://www.w3.org/2000/svg" xmlns:xlink="http://www.w3.org/1999/xlink" x="0px" y="0px"
	 viewBox="0 0 637 256" style="enable-background:new 0 0 637 256;" xml:space="preserve">
<style type="text/css">
	.st0{fill:#1F1955;}
</style>
<g>
	<path class="st0" d="M132.9,34.1l3.3,3.1c-8.1,8.9-13.6,16.6-16.6,23.2c-3,6.6-4.5,13.8-4.5,21.6c0,3.9,0.1,10.8,0.4,20.8
		c0.1,5.3,0.2,10.7,0.2,16.4c0,17.4-2.2,30.4-6.5,39c-5.7,11.3-15.1,21.2-28,29.8c-10.7,7.1-20.2,10.6-28.4,10.6
		c-2.3,0-4.3-0.2-6-0.6c-1.7-0.4-4.5-1.3-8.3-2.8c-5.2-2.1-9.5-3.1-12.7-3.1c-2.8,0-5,0.6-6.8,1.8c-1.2,0.8-2.3,2.5-3.4,5.2
		l-3.8-1.6c1.6-6.2,3.8-10.8,6.4-13.7c4.3-4.6,9.9-7,17-7c3,0,6.2,0.6,9.9,1.8c5.2,1.7,9.1,2.5,11.6,2.5c4.9,0,8.9-1.6,11.9-4.7
		c3-3.1,4.6-7.2,4.6-12.3c0-7-2.4-13.8-7.2-20.5c-6.7-9.3-15-13.9-24.8-13.9c-1.8,0-4.1,0.3-6.8,0.9l-2.1-3.3
		c5.9-3.5,11.5-5.3,16.7-5.3c2.8,0,5.4,0.4,7.8,1.1c2.4,0.7,5.3,2.1,8.8,4.2c-0.7-5.6-1.8-9.8-3.4-12.7c-2.1-3.8-4.8-6.8-8.3-9
		c-3.5-2.2-6.9-3.3-10.1-3.3c-2.9,0-6.1,1.1-9.3,3.3l-2.6-3.3c3.6-3,6.8-5,9.8-6.2c3-1.2,6.2-1.8,9.9-1.8c4.8,0,10.2,1.7,16,5
		c0.3-7.2,1.2-12.9,2.8-17.1c1.6-4.2,4.6-8.6,9-13.2c4.4-4.6,11.5-10,21.4-16.3c-9,2.8-16.5,4.2-22.5,4.2c-6.2,0-13.1-1.4-20.7-4.1
		c-7.6-2.7-13.4-4.1-17.5-4.1c-5.3,0-9.5,1.3-12.6,3.8c-3.1,2.5-4.6,5.1-4.6,7.8c0,0.8,0.2,1.5,0.7,2c0.5,0.5,1.1,0.8,1.7,0.8
		c0.6,0,1.6-0.3,2.9-0.8c1.3-0.6,2.4-0.8,3.4-0.8c2.1,0,4,0.8,5.5,2.3c1.5,1.5,2.3,3.4,2.3,5.7c0,2.5-0.8,4.6-2.5,6.3
		c-1.7,1.7-3.8,2.5-6.4,2.5c-3.3,0-6.3-1.4-8.8-4.3c-2.5-2.9-3.8-6.6-3.8-11.4c0-6.8,3.1-13.1,9.4-18.8c6.3-5.7,14-8.6,23.1-8.6
		c5.7,0,15.4,1.5,29,4.6c10.9,2.5,19.5,3.8,25.7,3.8c5.8,0,10.8-0.7,14.9-2.2C124,40,128.3,37.6,132.9,34.1z M119.4,47.5
		C110.5,51.8,104,56,99.7,60c-5.6,5.5-9.8,11.8-12.6,19c-2.8,7.2-4.2,17-4.2,29.4l0.6,41.7c0,10.2-1.3,18.2-3.9,23.9
		c-1.8,4.1-5.7,8.6-11.6,13.3c7-2.9,12-5.5,15.1-7.9c4.3-3.3,7.6-7.6,10.1-12.9c2.4-5.3,3.7-12,3.7-20.2l-0.7-42.8
		c0-12.8,2.2-24.1,6.5-33.9C105.5,62.8,111.1,55.4,119.4,47.5z"/>
	<path class="st0" d="M170.2,76.4l26.6,31L154.5,137v17.1l21.9,8.7l14.8-10.1l2.1,2.8l-30.5,21.3c-6.2-3.3-11.4-5.7-15.4-7.2
		c-4-1.4-9.8-3-17.2-4.5v-2.4c2.1-1.3,3.6-2.8,4.3-4.7c0.7-1.9,1.1-5.9,1.1-12V92.3c5.9-2.1,10.8-4.1,14.7-5.8
		C153.1,85.1,159.7,81.8,170.2,76.4z M155.8,87.3l-1.3,0.7v42.8l24.8-17.4L155.8,87.3z"/>
	<path class="st0" d="M236.1,86.7l26.3-32.4h2.7l-0.9,26h18.9v10.6h-18.9v63.5l10.6,7.8l6-4.7l2.4,2.8l-20.8,16.6
		c-7.1-7.2-15.1-12.1-24-14.7v-1.9c2.5-1.7,4.2-3.5,5-5.3c1.1-2.3,1.6-5.7,1.6-10.1V90.9h-8.9V86.7z"/>
	<path class="st0" d="M289.9,49.9l14-13.9l13.9,13.1c-3.5,15.2-12,26.1-25.6,32.6l-2.3-3.3c4.2-3.4,6.7-5.8,7.6-7.3
		c1.4-2.4,2.2-4.7,2.2-7.1c0-2.1-0.6-4.1-1.9-6.2C296.4,55.8,293.8,53.1,289.9,49.9z"/>
	<path class="st0" d="M375.2,80.5l3.4,1.3c-3.4,5.3-5.5,9.3-6.5,12.1c-0.9,2.8-1.4,6.6-1.4,11.4v40.1c0,6.7,0.5,10.8,1.4,12.5
		c0.9,1.7,2.1,2.5,3.4,2.5c0.7,0,1.4-0.2,2.1-0.5c0.5-0.3,1.8-1.4,4-3.2l2.3,2.9l-20,17.3c-4.9-3.8-8.1-7.1-9.7-10.1
		c-1.6-3-2.6-7.1-2.7-12.5L323,176.9c-10.8-8.8-16.2-17.5-16.2-26c0-5.7,1.2-11.1,3.5-16.1c3.1-6.6,8.4-14.3,16-23.1L315,87.4
		l1.3-2.4c2.4,0.2,4.3,0.3,5.5,0.3c7.4,0,13.9-2.9,19.6-8.8c4.6,2.7,9.6,4.8,15,6.4c5.4,1.6,9.6,2.4,12.5,2.4c1.3,0,2.3-0.2,3-0.7
		C372.4,84.1,373.6,82.8,375.2,80.5z M351.6,98.4l-32.2-9.9l11.5,24.3l20.8,9.7V98.4z M351.6,126.5l-22.8-10.7
		c-3.5,7.7-5.3,14.4-5.3,20.2c0,10.2,4.6,18.6,13.9,25.2l14.2-11.5V126.5z"/>
	<path class="st0" d="M400,76.4l16.7,13.9l-7.4,7.2v51.3c0,5.4,0.5,8.9,1.4,10.6c0.9,1.6,1.8,2.4,2.8,2.4c0.7,0,1.3-0.2,1.9-0.5
		c0.8-0.4,2.4-1.7,4.9-3.8l2.3,2.9l-20.2,16.4c-5-3.6-8.3-7-9.7-10.1c-1.5-3.2-2.2-8.7-2.2-16.6V97.5l-7.1-7.2L400,76.4z
		 M407.1,44.2h12l-13,20.4h-3.8L407.1,44.2z"/>
	<path class="st0" d="M549.3,82l2.7,2.5c-3.6,3.1-6,5.6-7.3,7.5c-1.2,1.9-2,3.8-2.4,5.6c-0.4,1.9-0.6,5.7-0.6,11.6v39.2
		c0,5.1,0.5,8.6,1.5,10.3c1,1.7,2,2.5,2.9,2.5c1.3,0,3.4-1.3,6.6-3.9l2.3,2.9l-20.4,16.6c-4.7-3.6-7.7-6.7-9.1-9
		c-2-3.5-3-7.2-3-11.2V99.9l-9.4-8.2l-15,14v50.9l7.1,7.6l-16.4,12.7l-16.7-12.7l6.9-7.6v-46.8c0-5.5-0.4-9-1.2-10.5
		c-1.1-2.1-3.9-4.7-8.2-7.6l-14.9,12.5v52.5l7.3,7.6l-16.5,12.7l-16.9-12.7l7.3-7.6v-50.4c0-5.2-0.7-9-2-11.3c-1-1.8-2-2.6-2.8-2.6
		c-1,0-3.1,1.2-6.2,3.7l-2.3-2.9l19.6-16.6c4.3,3,7.2,5.5,8.7,7.4c1.5,1.9,2.6,4,3.3,6.3c0.4,1.6,0.6,4.9,0.6,9.7l28.1-23.4
		c6.2,4.9,10.2,9,12.1,12.2c1.9,3.2,3,7.3,3.3,12.2l26.3-24.4l15.4,14.4L549.3,82z"/>
	<path class="st0" d="M598,76.4l26.6,31L582.4,137v17.1l21.9,8.7l14.8-10.1l2.1,2.8l-30.5,21.3c-6.2-3.3-11.4-5.7-15.4-7.2
		c-4-1.4-9.8-3-17.2-4.5v-2.4c2.1-1.3,3.6-2.8,4.3-4.7c0.7-1.9,1.1-5.9,1.1-12V92.3c5.9-2.1,10.8-4.1,14.7-5.8
		C580.9,85.1,587.6,81.8,598,76.4z M583.7,87.3l-1.3,0.7v42.8l24.8-17.4L583.7,87.3z"/>
</g>
</svg>
