<svg width="2560" height="848" xmlns="http://www.w3.org/2000/svg">
 <!-- Created with Method Draw - http://github.com/duopixel/Method-Draw/ -->

 <g>
  <title>background</title>
  <rect x="-1" y="-1" width="5775.689463" height="1914.534635" id="canvas_background" fill="none"/>
  <g id="canvasGrid" display="none">
   <rect id="svg_1" width="100%" height="100%" x="0" y="0" stroke-width="0" fill="url(#gridpattern)"/>
  </g>
 </g>
 <g>
  <title>Layer 1</title>
  <path fill="#9d30d6" stroke="null" stroke-width="1.5" stroke-opacity="null" fill-opacity="null" d="m-33.010503,400.999822c14.000112,-54.000433 82.000657,-302.002419 100.000801,-320.002563c18.000144,-18.000145 62.000497,-2.000017 74.000593,-20.000161c12.000096,-18.000144 -0.000001,-48.000384 46.000368,-50.0004c46.000368,-2.000016 90.000721,62.000496 102.000818,92.000737c12.000096,30.00024 32.00034,124.000993 68.000544,120.000961c36.000204,-4.000032 0.000028,138.001274 26.000237,146.001338c26.000208,8.000064 110.000881,66.000529 130.001041,68.000545c20.00016,2.000016 154.001234,50.0004 194.001554,46.000368c40.000321,-4.000032 24.000277,-2.000016 102.000817,-9.999912c78.00054,-7.999896 46.000369,-12.00032 104.000833,-70.000729c58.000464,-58.000409 104.000806,-114.001081 128.000998,-124.001161c24.000192,-10.00008 54.000432,34.000272 88.000705,44.000352c34.000272,10.00008 22.000176,104.000833 84.000673,102.000817c62.000496,-2.000016 184.001474,54.000433 224.001794,38.000305c40.000321,-16.000129 66.000529,-8.000064 90.000721,-28.000224c24.000192,-20.000161 70.000561,-0.000001 114.000913,-72.000577c44.000352,-72.000577 72.000577,-18.000144 94.000753,16.000128c22.000176,34.000273 52.000417,-22.000176 72.000577,-14.000112c20.00016,8.000064 132.001029,24.00078 164.001286,36.000876c32.000256,12.000096 40.00032,46.000368 90.000721,30.00024c50.0004,-16.000128 112.000926,-40.000908 140.00115,-100.001388c28.000224,-60.000481 26.000208,-98.000786 42.000336,-108.000866c16.000129,-10.00008 90.000721,-18.000144 126.00101,-20.00016c36.000288,-2.000016 16.000128,108.000865 38.000304,136.00109c22.000176,28.000224 -18.000144,96.000769 52.000417,104.000833c70.000561,8.000064 96.000769,10.00008 116.000929,18.000144c20.00016,8.000064 -2.000016,240.001922 -2.000016,244.001954c0,4.000032 -2.000017,160.001282 -12.000097,152.001218c-10.00008,-8.000064 -2296.018393,78.000625 -2565.010309,-14.996733c-39.010552,30.996861 -43.010583,-387.006487 -29.010471,-441.00692z" id="svg_7"/>
  <path fill="#a34ad3" stroke="null" stroke-width="1.5" stroke-opacity="null" d="m194.991323,30.996858c18.000144,0 52.000417,14.000112 60.000481,32.000256c8.000064,18.000144 30.00024,72.000577 30.00024,72.000577c0,0 -46.000369,-70.000561 -72.000577,-74.000593c-26.000208,-4.000032 -36.000288,-30.00024 -18.000144,-30.00024z" id="svg_8"/>
  <path fill="#9d30d6" stroke="null" stroke-width="1.5" stroke-opacity="null" fill-opacity="null" d="m916.997107,467.000351c12.000096,-14.000112 96.000769,-80.000641 120.000961,-80.000641c24.000192,0 24.000192,26.000208 4.000032,26.000208c-20.00016,0 -136.001089,68.000545 -124.000993,54.000433z" id="svg_9"/>
  <path fill="#9d30d6" stroke="null" stroke-width="1.5" stroke-opacity="null" fill-opacity="null" d="m1048.998165,386.99971c18.000144,0 36.000288,14.000112 8.000064,18.000144l-8.000064,-18.000144z" id="svg_10"/>
  <path fill="#a34ad3" stroke="null" stroke-width="1.5" stroke-opacity="null" d="m916.1809,403.158871c18.000145,0 51.762822,15.985965 59.762886,33.98611c8.000064,18.000144 -4.557139,57.794595 30.237835,70.014723c-27.546672,45.046926 -46.000368,-70.00056 -72.000576,-74.000592c-26.000209,-4.000033 -36.000289,-30.000241 -18.000145,-30.000241z" id="svg_11" transform="rotate(-96.82266235351562 956.6187133789065,460.38006591796886) "/>
  <path fill="#a34ad3" stroke-width="1.5" stroke-opacity="null" d="m1685.694951,326.259641c13.672263,0 39.497647,21.313943 45.574208,48.717585c6.076561,27.403641 -39.062169,19.709844 22.787103,109.614562c-77.326147,-27.290558 -34.940225,-106.569713 -54.689048,-112.659411c-19.748824,-6.089699 -27.344525,-45.672736 -13.672263,-45.672736z" id="svg_12" transform="rotate(-72.99764251708984 1716.41015625,405.42568969726557) " stroke="null"/>
  <path fill="#a34ad3" stroke="null" stroke-width="1.5" stroke-opacity="null" fill-opacity="null" d="m2307.008242,238.998524c-24.000192,-2.000016 -46.000369,14.000112 -50.000401,46.000369c-4.000032,32.000256 -40.00032,138.001106 -40.990114,137.004488c0.989793,0.996617 76.990402,-157.004648 92.99053,-155.004632c16.000128,2.000016 22.000176,-26.000208 -2.000016,-28.000224l0.000001,-0.000001z" id="svg_13"/>
  <path fill="#a34ad3" stroke-width="1.5" stroke-opacity="null" fill-opacity="null" d="m80.99041,130.997029c-4.000032,-1.917131 -74.000593,185.961711 -74.990362,185.006397c0.989769,0.955314 30.99001,-31.635913 30.00024,-32.591227c0.98977,0.955314 48.990154,-150.498039 44.990122,-152.41517z" id="svg_14" stroke="null"/>
 </g>
</svg>