<svg width="2560" height="466" xmlns="http://www.w3.org/2000/svg">
 <!-- Created with Method Draw - http://github.com/duopixel/Method-Draw/ -->
 <g>
  <title>background</title>
  <rect fill="none" id="canvas_background" height="468" width="2562" y="-1" x="-1"/>
  <g display="none" overflow="visible" y="0" x="0" height="100%" width="100%" id="canvasGrid">
   <rect fill="url(#gridpattern)" stroke-width="0" y="0" x="0" height="100%" width="100%"/>
  </g>
 </g>
 <g>
  <title>Layer 1</title>
  <path stroke="null" id="svg_1" d="m1372.177751,355.233955c97.343827,-127.526108 247.951252,-362.740921 277.338068,-351.40527c29.386815,11.335658 152.444105,127.526108 194.687649,116.190451c42.243549,-11.33565 102.853854,121.85828 145.097403,130.360019c42.243544,8.501747 154.280779,170.034813 191.014296,147.363505c36.733522,-22.671308 207.544382,0 220.401116,-53.844356c12.856733,-53.844356 69.793686,-147.363505 97.343827,-130.360019c27.550137,17.003479 67.957007,59.512177 67.957007,90.685225c0,31.173055 -5.510027,478.931378 -6.420515,476.103617c0.910488,2.827761 -1183.745497,-2.840067 -1182.819269,-5.667829c-0.926228,2.827761 -101.943408,-291.899235 -4.599581,-419.425344z" stroke-width="1.5" fill="#f572ff"/>
  <path stroke="null" id="svg_2" d="m1605.447009,84.244849c20.892272,23.876883 41.784545,86.5537 98.492141,86.5537c56.707596,0 128.338245,53.722986 149.230517,41.784545c20.892272,-11.938441 5.969221,-41.784545 -38.799934,-47.753765c-44.769155,-5.969221 -229.814996,-104.461362 -208.922724,-80.584479z" stroke-width="1.5" fill="#eb80f7"/>
  <path stroke="null" id="svg_3" d="m2100.672562,436.624609c35.46451,-7.647832 134.765129,-19.119575 193.872647,-24.855446c59.107512,-5.735871 189.144038,-9.559787 189.144038,-26.767402c0,-17.207619 47.286014,3.823911 42.557411,3.823911c-4.728603,0 -66.200412,34.415233 -118.215029,38.239149c-52.014611,3.823916 -115.850725,13.383703 -182.051137,19.119575c-66.200418,5.735871 -160.772434,-1.91196 -125.30793,-9.559787z" stroke-width="1.5" fill="#eb80f7"/>
  <path stroke="null" id="svg_4" d="m876.171129,383.234328c97.343827,-127.526108 247.951253,-362.74092 277.338068,-351.40527c29.386816,11.335658 152.444105,127.526108 194.687649,116.190451c42.243549,-11.335651 102.853854,121.858279 145.097403,130.360019c42.243545,8.501747 154.280779,170.034813 191.014296,147.363505c36.733522,-22.671308 207.544382,0 220.401116,-53.844355c12.856733,-53.844356 69.793685,-147.363506 97.343827,-130.360019c27.550136,17.003479 67.957006,59.512177 67.957006,90.685225c0,31.173054 -5.510027,478.931378 -6.420515,476.103617c0.910488,2.827761 -1183.745496,-2.840068 -1182.819269,-5.667829c-0.926227,2.827761 -101.943407,-291.899235 -4.599581,-419.425344z" stroke-width="1.5" fill="#f572ff"/>
  <path stroke="null" id="svg_5" d="m-55.841315,363.234061c97.343827,-127.526108 247.951253,-362.74092 277.338068,-351.40527c29.386816,11.335658 152.444105,127.526108 194.687649,116.190451c42.243549,-11.335651 102.853854,121.858279 145.097403,130.360019c42.243545,8.501747 154.280779,170.034813 191.014296,147.363505c36.733522,-22.671308 207.544382,0 220.401116,-53.844355c12.856733,-53.844356 69.793685,-147.363506 97.343827,-130.360019c27.550136,17.003479 67.957006,59.512177 67.957006,90.685225c0,31.173054 -5.510027,478.931378 -6.420515,476.103617c0.910488,2.827761 -1183.745496,-2.840068 -1182.819269,-5.667829c-0.926227,2.827761 -101.943407,-291.899235 -4.599581,-419.425344z" stroke-width="1.5" fill="#f572ff"/>
  <path stroke="null" id="svg_6" d="m137.427417,120.24533c20.892273,23.876883 41.784545,86.5537 98.492141,86.5537c56.707597,0 128.338245,53.722986 149.230517,41.784545c20.892273,-11.938442 5.969221,-41.784545 -38.799934,-47.753766c-44.769155,-5.969221 -229.814996,-104.461362 -208.922724,-80.584479z" stroke-width="1.5" fill="#eb80f7"/>
  <path stroke="null" id="svg_7" d="m1605.447009,84.244849c20.892273,23.876883 41.784545,86.5537 98.492141,86.5537c56.707597,0 128.338245,53.722986 149.230517,41.784545c20.892273,-11.938442 5.969221,-41.784545 -38.799934,-47.753766c-44.769155,-5.969221 -229.814996,-104.461362 -208.922724,-80.584479z" stroke-width="1.5" fill="#eb80f7"/>
  <path stroke="null" id="svg_8" d="m1605.447009,84.244849c20.892273,23.876883 41.784545,86.5537 98.492141,86.5537c56.707597,0 128.338245,53.722986 149.230517,41.784545c20.892273,-11.938442 5.969221,-41.784545 -38.799934,-47.753766c-44.769155,-5.969221 -229.814996,-104.461362 -208.922724,-80.584479z" stroke-width="1.5" fill="#eb80f7"/>
  <path stroke="null" id="svg_9" d="m1093.440173,92.244956c20.892273,23.876883 41.784545,86.5537 98.492141,86.5537c56.707597,0 128.338245,53.722986 149.230517,41.784545c20.892273,-11.938442 5.969221,-41.784545 -38.799934,-47.753766c-44.769155,-5.969221 -229.814996,-104.461362 -208.922724,-80.584479z" stroke-width="1.5" fill="#eb80f7"/>
 </g>
</svg>