<svg width="2560" height="466" xmlns="http://www.w3.org/2000/svg">
 <!-- Created with Method Draw - http://github.com/duopixel/Method-Draw/ -->
 <g>
  <title>background</title>
  <rect fill="none" id="canvas_background" height="468" width="2562" y="-1" x="-1"/>
  <g display="none" overflow="visible" y="0" x="0" height="100%" width="100%" id="canvasGrid">
   <rect fill="url(#gridpattern)" stroke-width="0" y="0" x="0" height="100%" width="100%"/>
  </g>
 </g>
 <g>
  <title>Layer 1</title>
  <path id="svg_1" d="m2.989785,320.713451c82.000657,-33.648265 356.002852,-193.477521 426.003413,-193.477521c70.000561,0 210.001682,-48.36938 274.002195,-69.399546c64.000513,-21.030165 102.000817,-44.163347 144.001154,-35.751281c42.000336,8.412066 156.00125,14.721116 178.001426,52.575413c22.000176,37.854298 130.001041,115.665909 158.001266,105.150827c28.000224,-10.515083 112.000897,107.253843 170.001362,111.459876c58.000465,4.206033 306.002451,33.648265 340.002724,-12.618099c34.000272,-46.266364 212.001698,-143.005124 238.001907,-140.902108c26.000208,2.103017 186.00149,-44.163347 204.001634,-63.090496c18.000144,-18.927149 140.001122,-33.648265 154.001234,-8.412066c14.000112,25.236198 138.001106,180.859422 170.001362,170.344339c32.000256,-10.515083 86.000689,178.756405 106.000849,164.03529c20.00016,-14.721116 -8.000064,69.399546 -8.989861,67.298486c0.989797,2.101059 -2555.030679,2.101059 -2556.020448,0c0.989769,2.101059 -79.010872,-113.56485 2.989785,-147.213115z" stroke-width="1.5" fill="#f63eff"/>
  <path stroke="null" transform="rotate(-5.291466236114502 714.7836303710936,75.47460174560548) " id="svg_2" d="m626.960212,95.922986c120.562361,-19.569701 173.926029,-41.585614 185.784622,-46.478039c11.858593,-4.892425 31.622914,13.454169 7.905729,24.462126c-23.717186,11.007957 -314.252712,41.585614 -193.690351,22.015913z" stroke-width="1.5" fill="#f96dfd"/>
  <path id="svg_3" d="m980.99762,93.998886c30.00024,36.000288 98.000785,96.000769 130.001041,96.000769c32.000256,0 78.000625,32.000256 80.000641,30.00024c2.000016,-2.000016 52.000417,34.000272 50.000401,32.000256c-2.000016,-2.000016 -114.000913,-46.000369 -130.001041,-34.000272c-16.000128,12.000096 -94.000753,-46.000369 -100.000801,-58.000465c-6.000048,-12.000096 -60.000481,-102.000817 -30.00024,-66.000529z" stroke-opacity="null" stroke-width="1.5" stroke="null" fill="#f96dfd"/>
  <path id="svg_4" d="m1993.005727,149.999335c52.000417,-14.000112 182.001458,-44.000352 186.00149,-62.000497c4.000032,-18.000144 58.000465,14.000112 32.000256,24.000192c-26.000208,10.00008 -214.001714,64.000513 -234.001875,54.000433c-20.00016,-10.00008 -36.000288,-2.000016 16.000128,-16.000128z" stroke-opacity="null" stroke-width="1.5" stroke="null" fill="#f96dfd"/>
 </g>
</svg>