<svg width="2560" height="798" xmlns="http://www.w3.org/2000/svg">
 <!-- Created with Method Draw - http://github.com/duopixel/Method-Draw/ -->

 <g>
  <title>background</title>
  <rect x="-1" y="-1" width="5023.274232" height="1567.225327" id="canvas_background" fill="none"/>
  <g id="canvasGrid" display="none">
   <rect id="svg_2" width="100%" height="100%" x="0" y="0" stroke-width="0" fill="url(#gridpattern)"/>
  </g>
 </g>
 <g>
  <title>Layer 1</title>
  <path fill="#160757" stroke-width="1.5" d="m1.16129,124.53236c30.34895,4.04653 254.93119,111.27948 263.02424,143.6517c8.09305,32.37221 57.214425,198.713495 126.005375,200.736765c68.79096,2.02326 151.74476,137.5819 198.27981,131.51211c46.53506,-6.06979 192.21002,22.2559 228.62876,-2.02326c36.41874,-24.27916 198.27981,4.04653 238.74508,0c40.46526,-4.04653 91.04685,-16.18611 129.48885,-42.48853c38.442,-26.30242 202.32634,-66.76769 246.83813,-68.79095c44.51179,-2.02327 139.042115,143.218005 228.065705,88.589895c89.02359,-54.62811 424.88531,-145.67497 469.3971,-141.62844c44.51179,4.04653 123.41906,-26.30242 159.8378,-78.90727c36.41875,-52.60485 72.83749,-123.41906 115.32602,-125.44233c42.48853,-2.02326 66.76769,-20.23263 99.1399,-52.60484c32.37221,-32.37222 52.60485,-89.02359 64.74443,-91.04686c12.13958,-2.02326 26.30242,6.06979 26.30242,30.34895c0,24.27917 -33.97673,699.51406 -30.98889,685.51391c-46.98782,36.00014 -2556.85799,32.04667 -2563.84678,4.04653c-11.01121,50.00013 -29.3369,-685.51391 1.01205,-681.46738z" id="svg_1" stroke="null"/>
 </g>
</svg>